{
  "source": "C:\\Users\\Peter\\Desktop\\stuff\\MIUN\\quantitative_research\\video_compression\\videos\\BVI-HD\\BVI-HD_CDVL_videos\\ORIG\\Lightreef_1920x1080_30fps.mp4",
  "output": "C:\\Users\\Peter\\Desktop\\stuff\\MIUN\\quantitative_research\\video_compression\\compressed_videos\\BVI-HD\\vp9\\4\\Lightreef_1920x1080_30fps_vp9.webm",
  "codec": "vp9",
  "ok": "Input #0, mov,mp4,m4a,3gp,3g2,mj2, from 'C:\\Users\\Peter\\Desktop\\stuff\\MIUN\\quantitative_research\\video_compression\\videos\\BVI-HD\\BVI-HD_CDVL_videos\\ORIG\\Lightreef_1920x1080_30fps.mp4':\n  Metadata:\n    major_brand     : isom\n    minor_version   : 512\n    compatible_brands: isomiso2avc1mp41\n    encoder         : Lavf54.28.101\n  Duration: 00:00:05.00, start: 0.000000, bitrate: 361719 kb/s\n  Stream #0:0[0x1](und): Video: h264 (High 4:4:4 Predictive) (avc1 / 0x31637661), yuv420p(progressive), 1920x1080, 361715 kb/s, 30 fps, 30 tbr, 30 tbn (default)\n    Metadata:\n      handler_name    : VideoHandler\n      vendor_id       : [0][0][0][0]\n[out#0/webm @ 0000019849899700] Codec AVOption b:a (set bitrate (in bits/s)) has not been used for any stream. The most likely reason is either wrong type (e.g. a video option with no video streams) or that it is a private option of some decoder which was not actually used for any stream.\nStream mapping:\n  Stream #0:0 -> #0:0 (h264 (native) -> vp9 (libvpx-vp9))\nPress [q] to stop, [?] for help\n[libvpx-vp9 @ 000001984a400440] v1.15.2-100-g40561f514\nOutput #0, webm, to 'C:\\Users\\Peter\\Desktop\\stuff\\MIUN\\quantitative_research\\video_compression\\compressed_videos\\BVI-HD\\vp9\\4\\Lightreef_1920x1080_30fps_vp9.webm':\n  Metadata:\n    major_brand     : isom\n    minor_version   : 512\n    compatible_brands: isomiso2avc1mp41\n    encoder         : Lavf62.3.100\n  Stream #0:0(und): Video: vp9, yuv420p(tv, progressive), 1920x1080, q=2-31, 4000 kb/s, 30 fps, 1k tbn (default)\n    Metadata:\n      encoder         : Lavc62.11.100 libvpx-vp9\n      handler_name    : VideoHandler\n      vendor_id       : [0][0][0][0]\n    Side data:\n      cpb: bitrate max/min/avg: 0/0/0 buffer size: 4000000 vbv_delay: N/A\nframe=    0 fps=0.0 q=0.0 size=       0KiB time=N/A bitrate=N/A speed=N/A elapsed=0:00:00.52    \nframe=    0 fps=0.0 q=0.0 size=       0KiB time=N/A bitrate=N/A speed=N/A elapsed=0:00:01.07    \nframe=    3 fps=1.9 q=45.0 size=       1KiB time=00:00:00.10 bitrate=  50.7kbits/s speed=0.0623x elapsed=0:00:01.60    \nframe=    7 fps=3.3 q=52.0 size=       1KiB time=00:00:00.23 bitrate=  21.7kbits/s speed=0.11x elapsed=0:00:02.12    \nframe=   10 fps=3.8 q=51.0 size=       1KiB time=00:00:00.33 bitrate=  15.2kbits/s speed=0.126x elapsed=0:00:02.65    \nframe=   13 fps=4.1 q=48.0 size=       1KiB time=00:00:00.43 bitrate=  11.7kbits/s speed=0.136x elapsed=0:00:03.18    \nframe=   16 fps=4.3 q=49.0 size=       1KiB time=00:00:00.53 bitrate=   9.5kbits/s speed=0.144x elapsed=0:00:03.70    \nframe=   19 fps=4.5 q=49.0 size=       1KiB time=00:00:00.63 bitrate=   8.0kbits/s speed=0.149x elapsed=0:00:04.26    \nframe=   21 fps=4.4 q=35.0 size=       1KiB time=00:00:00.70 bitrate=   7.2kbits/s speed=0.146x elapsed=0:00:04.79    \nframe=   24 fps=4.5 q=48.0 size=       1KiB time=00:00:00.80 bitrate=   6.3kbits/s speed=0.151x elapsed=0:00:05.29    \nframe=   27 fps=4.6 q=49.0 size=       1KiB time=00:00:00.90 bitrate=   5.6kbits/s speed=0.155x elapsed=0:00:05.81    \nframe=   30 fps=4.7 q=49.0 size=       1KiB time=00:00:01.00 bitrate=   5.1kbits/s speed=0.158x elapsed=0:00:06.33    \nframe=   32 fps=4.7 q=50.0 size=       1KiB time=00:00:01.06 bitrate=   4.8kbits/s speed=0.155x elapsed=0:00:06.86    \nframe=   36 fps=4.9 q=49.0 size=       1KiB time=00:00:01.20 bitrate=   4.2kbits/s speed=0.163x elapsed=0:00:07.37    \nframe=   39 fps=4.9 q=49.0 size=       1KiB time=00:00:01.30 bitrate=   3.9kbits/s speed=0.164x elapsed=0:00:07.91    \nframe=   42 fps=5.0 q=47.0 size=       1KiB time=00:00:01.40 bitrate=   3.6kbits/s speed=0.165x elapsed=0:00:08.46    \nframe=   45 fps=5.0 q=48.0 size=       1KiB time=00:00:01.50 bitrate=   3.4kbits/s speed=0.166x elapsed=0:00:09.01    \nframe=   47 fps=4.9 q=47.0 size=       1KiB time=00:00:01.56 bitrate=   3.2kbits/s speed=0.164x elapsed=0:00:09.54    \nframe=   50 fps=5.0 q=49.0 size=       1KiB time=00:00:01.66 bitrate=   3.0kbits/s speed=0.166x elapsed=0:00:10.06    \nframe=   53 fps=5.0 q=48.0 size=       1KiB time=00:00:01.76 bitrate=   2.9kbits/s speed=0.167x elapsed=0:00:10.59    \nframe=   56 fps=5.0 q=49.0 size=       1KiB time=00:00:01.86 bitrate=   2.7kbits/s speed=0.168x elapsed=0:00:11.12    \nframe=   58 fps=5.0 q=46.0 size=       1KiB time=00:00:01.93 bitrate=   2.6kbits/s speed=0.166x elapsed=0:00:11.66    \nframe=   61 fps=5.0 q=47.0 size=       1KiB time=00:00:02.03 bitrate=   2.5kbits/s speed=0.167x elapsed=0:00:12.20    \nframe=   64 fps=5.0 q=48.0 size=       1KiB time=00:00:02.13 bitrate=   2.4kbits/s speed=0.167x elapsed=0:00:12.73    \nframe=   66 fps=5.0 q=49.0 size=       1KiB time=00:00:02.20 bitrate=   2.3kbits/s speed=0.165x elapsed=0:00:13.30    \nframe=   69 fps=5.0 q=49.0 size=       1KiB time=00:00:02.30 bitrate=   2.2kbits/s speed=0.166x elapsed=0:00:13.82    \nframe=   72 fps=5.0 q=51.0 size=       1KiB time=00:00:02.40 bitrate=   2.1kbits/s speed=0.167x elapsed=0:00:14.33    \nframe=   75 fps=5.0 q=48.0 size=       1KiB time=00:00:02.50 bitrate=   2.0kbits/s speed=0.168x elapsed=0:00:14.85    \nframe=   78 fps=5.1 q=50.0 size=       1KiB time=00:00:02.60 bitrate=   2.0kbits/s speed=0.169x elapsed=0:00:15.40    \nframe=   80 fps=5.0 q=47.0 size=       1KiB time=00:00:02.66 bitrate=   1.9kbits/s speed=0.167x elapsed=0:00:15.95    \nframe=   83 fps=5.0 q=49.0 size=       1KiB time=00:00:02.76 bitrate=   1.8kbits/s speed=0.168x elapsed=0:00:16.48    \nframe=   86 fps=5.1 q=50.0 size=       1KiB time=00:00:02.86 bitrate=   1.8kbits/s speed=0.168x elapsed=0:00:17.02    \nframe=   88 fps=5.0 q=51.0 size=       1KiB time=00:00:02.93 bitrate=   1.7kbits/s speed=0.167x elapsed=0:00:17.54    \nframe=   91 fps=5.0 q=50.0 size=       1KiB time=00:00:03.03 bitrate=   1.7kbits/s speed=0.168x elapsed=0:00:18.06    \nframe=   94 fps=5.1 q=51.0 size=       1KiB time=00:00:03.13 bitrate=   1.6kbits/s speed=0.168x elapsed=0:00:18.59    \nframe=   97 fps=5.1 q=49.0 size=       1KiB time=00:00:03.23 bitrate=   1.6kbits/s speed=0.169x elapsed=0:00:19.15    \nframe=  100 fps=5.1 q=50.0 size=       1KiB time=00:00:03.33 bitrate=   1.5kbits/s speed=0.169x elapsed=0:00:19.70    \nframe=  103 fps=5.1 q=49.0 size=       1KiB time=00:00:03.43 bitrate=   1.5kbits/s speed=0.169x elapsed=0:00:20.25    \nframe=  106 fps=5.1 q=51.0 size=       1KiB time=00:00:03.53 bitrate=   1.4kbits/s speed=0.17x elapsed=0:00:20.79    \nframe=  109 fps=5.1 q=50.0 size=       1KiB time=00:00:03.63 bitrate=   1.4kbits/s speed=0.17x elapsed=0:00:21.32    \nframe=  112 fps=5.1 q=51.0 size=       1KiB time=00:00:03.73 bitrate=   1.4kbits/s speed=0.171x elapsed=0:00:21.84    \nframe=  115 fps=5.1 q=49.0 size=       1KiB time=00:00:03.83 bitrate=   1.3kbits/s speed=0.171x elapsed=0:00:22.37    \nframe=  118 fps=5.2 q=50.0 size=       1KiB time=00:00:03.93 bitrate=   1.3kbits/s speed=0.172x elapsed=0:00:22.90    \nframe=  121 fps=5.2 q=47.0 size=       1KiB time=00:00:04.03 bitrate=   1.3kbits/s speed=0.172x elapsed=0:00:23.43    \nframe=  124 fps=5.2 q=48.0 size=       1KiB time=00:00:04.13 bitrate=   1.2kbits/s speed=0.172x elapsed=0:00:23.97    \nframe=  126 fps=5.1 q=48.0 size=       1KiB time=00:00:04.20 bitrate=   1.2kbits/s speed=0.171x elapsed=0:00:24.50    \nframe=  126 fps=5.0 q=48.0 size=       1KiB time=00:00:04.20 bitrate=   1.2kbits/s speed=0.168x elapsed=0:00:25.02    \nframe=  126 fps=4.9 q=48.0 size=       1KiB time=00:00:04.20 bitrate=   1.2kbits/s speed=0.164x elapsed=0:00:25.55    \nframe=  126 fps=4.8 q=48.0 size=       1KiB time=00:00:04.20 bitrate=   1.2kbits/s speed=0.161x elapsed=0:00:26.09    \nframe=  126 fps=4.7 q=48.0 size=       1KiB time=00:00:04.20 bitrate=   1.2kbits/s speed=0.158x elapsed=0:00:26.61    \nframe=  126 fps=4.6 q=48.0 size=       1KiB time=00:00:04.20 bitrate=   1.2kbits/s speed=0.155x elapsed=0:00:27.12    \nframe=  126 fps=4.6 q=48.0 size=       1KiB time=00:00:04.20 bitrate=   1.2kbits/s speed=0.152x elapsed=0:00:27.65    \nframe=  126 fps=4.5 q=48.0 size=       1KiB time=00:00:04.20 bitrate=   1.2kbits/s speed=0.149x elapsed=0:00:28.18    \nframe=  126 fps=4.4 q=48.0 size=       1KiB time=00:00:04.20 bitrate=   1.2kbits/s speed=0.146x elapsed=0:00:28.70    \n[out#0/webm @ 0000019849899700] video:3212KiB audio:0KiB subtitle:0KiB other streams:0KiB global headers:0KiB muxing overhead: 0.053745%\nframe=  150 fps=5.2 q=54.0 Lsize=    3214KiB time=00:00:05.00 bitrate=5266.2kbits/s speed=0.174x elapsed=0:00:28.73    \n",
  "seconds": 29.04219102859497,
  "probe_out": {}
}